<mxfile host="Electron" modified="2023-10-29T05:02:37.206Z" agent="Mozilla/5.0 (Windows NT 10.0; Win64; x64) AppleWebKit/537.36 (KHTML, like Gecko) draw.io/21.1.2 Chrome/106.0.5249.199 Electron/21.4.3 Safari/537.36" etag="aJVKqDwLBs5vfEosASnj" version="21.1.2" type="device">
  <diagram id="aqrfMFMAa0HE1SeiLMsb" name="classes">
    <mxGraphModel dx="2526" dy="1253" grid="1" gridSize="10" guides="1" tooltips="1" connect="1" arrows="1" fold="1" page="1" pageScale="1" pageWidth="4681" pageHeight="3300" math="0" shadow="0">
      <root>
        <mxCell id="0" />
        <mxCell id="1" parent="0" />
        <mxCell id="wUfbMhwo-QzJpiY3814y-25" value="details" style="shape=umlFrame;whiteSpace=wrap;html=1;shadow=1;fillColor=#d5e8d4;strokeColor=#82b366;width=50;height=20;" parent="1" vertex="1">
          <mxGeometry x="330" y="660" width="790" height="300" as="geometry" />
        </mxCell>
        <mxCell id="wUfbMhwo-QzJpiY3814y-1" value="Connection" style="swimlane;fontStyle=1;align=center;verticalAlign=top;childLayout=stackLayout;horizontal=1;startSize=26;horizontalStack=0;resizeParent=1;resizeParentMax=0;resizeLast=0;collapsible=1;marginBottom=0;fillColor=#f5f5f5;fontColor=#333333;strokeColor=#666666;shadow=1;" parent="1" vertex="1">
          <mxGeometry x="970" y="320" width="160" height="126" as="geometry" />
        </mxCell>
        <mxCell id="wUfbMhwo-QzJpiY3814y-26" value="" style="text;strokeColor=none;fillColor=none;align=left;verticalAlign=middle;spacingTop=-1;spacingLeft=4;spacingRight=4;rotatable=0;labelPosition=right;points=[];portConstraint=eastwest;" parent="wUfbMhwo-QzJpiY3814y-1" vertex="1">
          <mxGeometry y="26" width="160" height="14" as="geometry" />
        </mxCell>
        <mxCell id="wUfbMhwo-QzJpiY3814y-3" value="" style="line;strokeWidth=1;fillColor=none;align=left;verticalAlign=middle;spacingTop=-1;spacingLeft=3;spacingRight=3;rotatable=0;labelPosition=right;points=[];portConstraint=eastwest;strokeColor=inherit;" parent="wUfbMhwo-QzJpiY3814y-1" vertex="1">
          <mxGeometry y="40" width="160" height="8" as="geometry" />
        </mxCell>
        <mxCell id="wUfbMhwo-QzJpiY3814y-56" value="+ disconnect()" style="text;strokeColor=none;fillColor=none;align=left;verticalAlign=top;rounded=0;shadow=1;spacingLeft=4;spacingRight=4;" parent="wUfbMhwo-QzJpiY3814y-1" vertex="1">
          <mxGeometry y="48" width="160" height="26" as="geometry" />
        </mxCell>
        <mxCell id="wUfbMhwo-QzJpiY3814y-53" value="+ block()" style="text;strokeColor=none;fillColor=none;align=left;verticalAlign=top;rounded=0;shadow=1;spacingLeft=4;spacingRight=4;" parent="wUfbMhwo-QzJpiY3814y-1" vertex="1">
          <mxGeometry y="74" width="160" height="26" as="geometry" />
        </mxCell>
        <mxCell id="wUfbMhwo-QzJpiY3814y-55" value="+ unblock()" style="text;strokeColor=none;fillColor=none;align=left;verticalAlign=top;rounded=0;shadow=1;spacingLeft=4;spacingRight=4;" parent="wUfbMhwo-QzJpiY3814y-1" vertex="1">
          <mxGeometry y="100" width="160" height="26" as="geometry" />
        </mxCell>
        <mxCell id="wUfbMhwo-QzJpiY3814y-5" value="Signal" style="swimlane;fontStyle=1;align=center;verticalAlign=top;childLayout=stackLayout;horizontal=1;startSize=26;horizontalStack=0;resizeParent=1;resizeParentMax=0;resizeLast=0;collapsible=1;marginBottom=0;fillColor=#f5f5f5;fontColor=#333333;strokeColor=#666666;shadow=1;" parent="1" vertex="1">
          <mxGeometry x="420" y="510" width="160" height="74" as="geometry" />
        </mxCell>
        <mxCell id="wUfbMhwo-QzJpiY3814y-38" value="" style="text;strokeColor=none;fillColor=none;align=left;verticalAlign=middle;spacingTop=-1;spacingLeft=4;spacingRight=4;rotatable=0;labelPosition=right;points=[];portConstraint=eastwest;" parent="wUfbMhwo-QzJpiY3814y-5" vertex="1">
          <mxGeometry y="26" width="160" height="14" as="geometry" />
        </mxCell>
        <mxCell id="wUfbMhwo-QzJpiY3814y-7" value="" style="line;strokeWidth=1;fillColor=none;align=left;verticalAlign=middle;spacingTop=-1;spacingLeft=3;spacingRight=3;rotatable=0;labelPosition=right;points=[];portConstraint=eastwest;strokeColor=inherit;" parent="wUfbMhwo-QzJpiY3814y-5" vertex="1">
          <mxGeometry y="40" width="160" height="8" as="geometry" />
        </mxCell>
        <mxCell id="wUfbMhwo-QzJpiY3814y-8" value="+ operator()(Args...)" style="text;strokeColor=none;fillColor=none;align=left;verticalAlign=top;rounded=0;shadow=1;spacingLeft=4;spacingRight=4;" parent="wUfbMhwo-QzJpiY3814y-5" vertex="1">
          <mxGeometry y="48" width="160" height="26" as="geometry" />
        </mxCell>
        <mxCell id="wUfbMhwo-QzJpiY3814y-9" value="SignalInterface" style="swimlane;fontStyle=1;align=center;verticalAlign=top;childLayout=stackLayout;horizontal=1;startSize=26;horizontalStack=0;resizeParent=1;resizeParentMax=0;resizeLast=0;collapsible=1;marginBottom=0;fillColor=#f5f5f5;fontColor=#333333;strokeColor=#666666;shadow=1;" parent="1" vertex="1">
          <mxGeometry x="660" y="510" width="160" height="74" as="geometry" />
        </mxCell>
        <mxCell id="wUfbMhwo-QzJpiY3814y-39" value="" style="text;strokeColor=none;fillColor=none;align=left;verticalAlign=middle;spacingTop=-1;spacingLeft=4;spacingRight=4;rotatable=0;labelPosition=right;points=[];portConstraint=eastwest;" parent="wUfbMhwo-QzJpiY3814y-9" vertex="1">
          <mxGeometry y="26" width="160" height="14" as="geometry" />
        </mxCell>
        <mxCell id="wUfbMhwo-QzJpiY3814y-11" value="" style="line;strokeWidth=1;fillColor=none;align=left;verticalAlign=middle;spacingTop=-1;spacingLeft=3;spacingRight=3;rotatable=0;labelPosition=right;points=[];portConstraint=eastwest;strokeColor=inherit;" parent="wUfbMhwo-QzJpiY3814y-9" vertex="1">
          <mxGeometry y="40" width="160" height="8" as="geometry" />
        </mxCell>
        <mxCell id="wUfbMhwo-QzJpiY3814y-12" value="+ connect(Args...)" style="text;strokeColor=none;fillColor=none;align=left;verticalAlign=top;rounded=0;shadow=1;spacingLeft=4;spacingRight=4;" parent="wUfbMhwo-QzJpiY3814y-9" vertex="1">
          <mxGeometry y="48" width="160" height="26" as="geometry" />
        </mxCell>
        <mxCell id="wUfbMhwo-QzJpiY3814y-13" value="RawConnection" style="swimlane;fontStyle=1;align=center;verticalAlign=top;childLayout=stackLayout;horizontal=1;startSize=26;horizontalStack=0;resizeParent=1;resizeParentMax=0;resizeLast=0;collapsible=1;marginBottom=0;fillColor=#f5f5f5;fontColor=#333333;strokeColor=#666666;shadow=1;" parent="1" vertex="1">
          <mxGeometry x="900" y="510" width="160" height="62" as="geometry" />
        </mxCell>
        <mxCell id="wUfbMhwo-QzJpiY3814y-27" value="" style="text;strokeColor=none;fillColor=none;align=left;verticalAlign=middle;spacingTop=-1;spacingLeft=4;spacingRight=4;rotatable=0;labelPosition=right;points=[];portConstraint=eastwest;" parent="wUfbMhwo-QzJpiY3814y-13" vertex="1">
          <mxGeometry y="26" width="160" height="14" as="geometry" />
        </mxCell>
        <mxCell id="wUfbMhwo-QzJpiY3814y-15" value="" style="line;strokeWidth=1;fillColor=none;align=left;verticalAlign=middle;spacingTop=-1;spacingLeft=3;spacingRight=3;rotatable=0;labelPosition=right;points=[];portConstraint=eastwest;strokeColor=inherit;" parent="wUfbMhwo-QzJpiY3814y-13" vertex="1">
          <mxGeometry y="40" width="160" height="8" as="geometry" />
        </mxCell>
        <mxCell id="wUfbMhwo-QzJpiY3814y-54" value="" style="text;strokeColor=none;fillColor=none;align=left;verticalAlign=middle;spacingTop=-1;spacingLeft=4;spacingRight=4;rotatable=0;labelPosition=right;points=[];portConstraint=eastwest;" parent="wUfbMhwo-QzJpiY3814y-13" vertex="1">
          <mxGeometry y="48" width="160" height="14" as="geometry" />
        </mxCell>
        <mxCell id="wUfbMhwo-QzJpiY3814y-17" value="ConnectionImpl" style="swimlane;fontStyle=1;align=center;verticalAlign=top;childLayout=stackLayout;horizontal=1;startSize=26;horizontalStack=0;resizeParent=1;resizeParentMax=0;resizeLast=0;collapsible=1;marginBottom=0;fillColor=#f5f5f5;fontColor=#333333;strokeColor=#666666;shadow=1;" parent="1" vertex="1">
          <mxGeometry x="900" y="852" width="160" height="62" as="geometry" />
        </mxCell>
        <mxCell id="wUfbMhwo-QzJpiY3814y-28" value="" style="text;strokeColor=none;fillColor=none;align=left;verticalAlign=middle;spacingTop=-1;spacingLeft=4;spacingRight=4;rotatable=0;labelPosition=right;points=[];portConstraint=eastwest;" parent="wUfbMhwo-QzJpiY3814y-17" vertex="1">
          <mxGeometry y="26" width="160" height="14" as="geometry" />
        </mxCell>
        <mxCell id="wUfbMhwo-QzJpiY3814y-19" value="" style="line;strokeWidth=1;fillColor=none;align=left;verticalAlign=middle;spacingTop=-1;spacingLeft=3;spacingRight=3;rotatable=0;labelPosition=right;points=[];portConstraint=eastwest;strokeColor=inherit;" parent="wUfbMhwo-QzJpiY3814y-17" vertex="1">
          <mxGeometry y="40" width="160" height="8" as="geometry" />
        </mxCell>
        <mxCell id="wUfbMhwo-QzJpiY3814y-46" value="" style="text;strokeColor=none;fillColor=none;align=left;verticalAlign=middle;spacingTop=-1;spacingLeft=4;spacingRight=4;rotatable=0;labelPosition=right;points=[];portConstraint=eastwest;" parent="wUfbMhwo-QzJpiY3814y-17" vertex="1">
          <mxGeometry y="48" width="160" height="14" as="geometry" />
        </mxCell>
        <mxCell id="wUfbMhwo-QzJpiY3814y-21" value="SignalImpl" style="swimlane;fontStyle=1;align=center;verticalAlign=top;childLayout=stackLayout;horizontal=1;startSize=26;horizontalStack=0;resizeParent=1;resizeParentMax=0;resizeLast=0;collapsible=1;marginBottom=0;fillColor=#f5f5f5;fontColor=#333333;strokeColor=#666666;shadow=1;" parent="1" vertex="1">
          <mxGeometry x="420" y="736" width="160" height="100" as="geometry" />
        </mxCell>
        <mxCell id="wUfbMhwo-QzJpiY3814y-29" value="" style="text;strokeColor=none;fillColor=none;align=left;verticalAlign=middle;spacingTop=-1;spacingLeft=4;spacingRight=4;rotatable=0;labelPosition=right;points=[];portConstraint=eastwest;" parent="wUfbMhwo-QzJpiY3814y-21" vertex="1">
          <mxGeometry y="26" width="160" height="14" as="geometry" />
        </mxCell>
        <mxCell id="wUfbMhwo-QzJpiY3814y-23" value="" style="line;strokeWidth=1;fillColor=none;align=left;verticalAlign=middle;spacingTop=-1;spacingLeft=3;spacingRight=3;rotatable=0;labelPosition=right;points=[];portConstraint=eastwest;strokeColor=inherit;" parent="wUfbMhwo-QzJpiY3814y-21" vertex="1">
          <mxGeometry y="40" width="160" height="8" as="geometry" />
        </mxCell>
        <mxCell id="wUfbMhwo-QzJpiY3814y-45" value="+ connect(Args...)" style="text;strokeColor=none;fillColor=none;align=left;verticalAlign=top;rounded=0;shadow=1;spacingLeft=4;spacingRight=4;" parent="wUfbMhwo-QzJpiY3814y-21" vertex="1">
          <mxGeometry y="48" width="160" height="26" as="geometry" />
        </mxCell>
        <mxCell id="wUfbMhwo-QzJpiY3814y-47" value="+ operator()(Args...)" style="text;strokeColor=none;fillColor=none;align=left;verticalAlign=top;rounded=0;shadow=1;spacingLeft=4;spacingRight=4;" parent="wUfbMhwo-QzJpiY3814y-21" vertex="1">
          <mxGeometry y="74" width="160" height="26" as="geometry" />
        </mxCell>
        <mxCell id="wUfbMhwo-QzJpiY3814y-30" value="BaseConnectionImpl" style="swimlane;fontStyle=1;align=center;verticalAlign=top;childLayout=stackLayout;horizontal=1;startSize=26;horizontalStack=0;resizeParent=1;resizeParentMax=0;resizeLast=0;collapsible=1;marginBottom=0;fillColor=#f5f5f5;fontColor=#333333;strokeColor=#666666;shadow=1;" parent="1" vertex="1">
          <mxGeometry x="900" y="706" width="160" height="100" as="geometry" />
        </mxCell>
        <mxCell id="wUfbMhwo-QzJpiY3814y-31" value="" style="text;strokeColor=none;fillColor=none;align=left;verticalAlign=middle;spacingTop=-1;spacingLeft=4;spacingRight=4;rotatable=0;labelPosition=right;points=[];portConstraint=eastwest;" parent="wUfbMhwo-QzJpiY3814y-30" vertex="1">
          <mxGeometry y="26" width="160" height="14" as="geometry" />
        </mxCell>
        <mxCell id="wUfbMhwo-QzJpiY3814y-32" value="" style="line;strokeWidth=1;fillColor=none;align=left;verticalAlign=middle;spacingTop=-1;spacingLeft=3;spacingRight=3;rotatable=0;labelPosition=right;points=[];portConstraint=eastwest;strokeColor=inherit;" parent="wUfbMhwo-QzJpiY3814y-30" vertex="1">
          <mxGeometry y="40" width="160" height="8" as="geometry" />
        </mxCell>
        <mxCell id="wUfbMhwo-QzJpiY3814y-33" value="+ block()" style="text;strokeColor=none;fillColor=none;align=left;verticalAlign=top;rounded=0;shadow=1;spacingLeft=4;spacingRight=4;" parent="wUfbMhwo-QzJpiY3814y-30" vertex="1">
          <mxGeometry y="48" width="160" height="26" as="geometry" />
        </mxCell>
        <mxCell id="wUfbMhwo-QzJpiY3814y-40" value="+ unblock()" style="text;strokeColor=none;fillColor=none;align=left;verticalAlign=top;rounded=0;shadow=1;spacingLeft=4;spacingRight=4;" parent="wUfbMhwo-QzJpiY3814y-30" vertex="1">
          <mxGeometry y="74" width="160" height="26" as="geometry" />
        </mxCell>
        <mxCell id="wUfbMhwo-QzJpiY3814y-34" value="" style="endArrow=block;dashed=1;endFill=0;endSize=12;html=1;rounded=0;" parent="1" source="wUfbMhwo-QzJpiY3814y-17" target="wUfbMhwo-QzJpiY3814y-30" edge="1">
          <mxGeometry width="160" relative="1" as="geometry">
            <mxPoint x="880" y="652" as="sourcePoint" />
            <mxPoint x="1040" y="652" as="targetPoint" />
          </mxGeometry>
        </mxCell>
        <mxCell id="wUfbMhwo-QzJpiY3814y-35" value="" style="endArrow=open;html=1;endSize=12;startArrow=diamondThin;startSize=14;startFill=0;edgeStyle=orthogonalEdgeStyle;align=left;verticalAlign=bottom;rounded=0;" parent="1" source="wUfbMhwo-QzJpiY3814y-21" target="wUfbMhwo-QzJpiY3814y-17" edge="1">
          <mxGeometry x="-1" y="3" relative="1" as="geometry">
            <mxPoint x="680" y="656" as="sourcePoint" />
            <mxPoint x="840" y="656" as="targetPoint" />
            <Array as="points">
              <mxPoint x="500" y="876" />
            </Array>
          </mxGeometry>
        </mxCell>
        <mxCell id="wUfbMhwo-QzJpiY3814y-57" value="《create》" style="edgeLabel;html=1;align=right;verticalAlign=bottom;resizable=0;points=[];" parent="wUfbMhwo-QzJpiY3814y-35" vertex="1" connectable="0">
          <mxGeometry x="0.8576" y="3" relative="1" as="geometry">
            <mxPoint x="21" y="-3" as="offset" />
          </mxGeometry>
        </mxCell>
        <mxCell id="wUfbMhwo-QzJpiY3814y-36" value="" style="endArrow=open;html=1;endSize=12;startArrow=diamondThin;startSize=14;startFill=1;edgeStyle=orthogonalEdgeStyle;align=left;verticalAlign=bottom;rounded=0;" parent="1" source="wUfbMhwo-QzJpiY3814y-5" target="wUfbMhwo-QzJpiY3814y-21" edge="1">
          <mxGeometry x="-1" y="3" relative="1" as="geometry">
            <mxPoint x="620" y="620" as="sourcePoint" />
            <mxPoint x="780" y="620" as="targetPoint" />
          </mxGeometry>
        </mxCell>
        <mxCell id="wUfbMhwo-QzJpiY3814y-37" value="《create》" style="endArrow=open;endSize=12;dashed=1;html=1;rounded=0;" parent="1" source="wUfbMhwo-QzJpiY3814y-5" target="wUfbMhwo-QzJpiY3814y-9" edge="1">
          <mxGeometry width="160" relative="1" as="geometry">
            <mxPoint x="620" y="620" as="sourcePoint" />
            <mxPoint x="780" y="620" as="targetPoint" />
          </mxGeometry>
        </mxCell>
        <mxCell id="wUfbMhwo-QzJpiY3814y-48" value="《create》" style="endArrow=open;endSize=12;dashed=1;html=1;rounded=0;" parent="1" source="wUfbMhwo-QzJpiY3814y-9" target="wUfbMhwo-QzJpiY3814y-13" edge="1">
          <mxGeometry width="160" relative="1" as="geometry">
            <mxPoint x="620" y="620" as="sourcePoint" />
            <mxPoint x="780" y="620" as="targetPoint" />
          </mxGeometry>
        </mxCell>
        <mxCell id="wUfbMhwo-QzJpiY3814y-49" value="" style="endArrow=open;html=1;endSize=12;startArrow=diamondThin;startSize=14;startFill=0;edgeStyle=orthogonalEdgeStyle;align=left;verticalAlign=bottom;rounded=0;" parent="1" source="wUfbMhwo-QzJpiY3814y-9" target="wUfbMhwo-QzJpiY3814y-21" edge="1">
          <mxGeometry x="-1" y="3" relative="1" as="geometry">
            <mxPoint x="770" y="550" as="sourcePoint" />
            <mxPoint x="930" y="550" as="targetPoint" />
            <Array as="points">
              <mxPoint x="740" y="640" />
              <mxPoint x="500" y="640" />
            </Array>
          </mxGeometry>
        </mxCell>
        <mxCell id="wUfbMhwo-QzJpiY3814y-50" value="" style="endArrow=open;html=1;endSize=12;startArrow=diamondThin;startSize=14;startFill=0;edgeStyle=orthogonalEdgeStyle;align=left;verticalAlign=bottom;rounded=0;" parent="1" source="wUfbMhwo-QzJpiY3814y-13" target="wUfbMhwo-QzJpiY3814y-30" edge="1">
          <mxGeometry x="-1" y="3" relative="1" as="geometry">
            <mxPoint x="680" y="656" as="sourcePoint" />
            <mxPoint x="840" y="656" as="targetPoint" />
            <Array as="points">
              <mxPoint x="980" y="670" />
              <mxPoint x="980" y="670" />
            </Array>
          </mxGeometry>
        </mxCell>
        <mxCell id="wUfbMhwo-QzJpiY3814y-51" value="" style="endArrow=open;html=1;endSize=12;startArrow=diamondThin;startSize=14;startFill=0;edgeStyle=orthogonalEdgeStyle;align=left;verticalAlign=bottom;rounded=0;" parent="1" source="wUfbMhwo-QzJpiY3814y-1" target="wUfbMhwo-QzJpiY3814y-30" edge="1">
          <mxGeometry x="-1" y="3" relative="1" as="geometry">
            <mxPoint x="680" y="656" as="sourcePoint" />
            <mxPoint x="840" y="656" as="targetPoint" />
            <Array as="points">
              <mxPoint x="1100" y="640" />
              <mxPoint x="980" y="640" />
            </Array>
          </mxGeometry>
        </mxCell>
        <mxCell id="wUfbMhwo-QzJpiY3814y-52" value="created from" style="endArrow=open;endSize=12;dashed=1;html=1;rounded=0;edgeStyle=orthogonalEdgeStyle;" parent="1" source="wUfbMhwo-QzJpiY3814y-1" target="wUfbMhwo-QzJpiY3814y-13" edge="1">
          <mxGeometry width="160" relative="1" as="geometry">
            <mxPoint x="950" y="470" as="sourcePoint" />
            <mxPoint x="780" y="620" as="targetPoint" />
            <Array as="points">
              <mxPoint x="1020" y="470" />
              <mxPoint x="1020" y="470" />
            </Array>
          </mxGeometry>
        </mxCell>
      </root>
    </mxGraphModel>
  </diagram>
</mxfile>
